<svg xmlns="http://www.w3.org/2000/svg" xmlns:xlink="http://www.w3.org/1999/xlink" viewBox="0 0 336.87 256.17">
  <defs>
    <style>
      .cls-1 {
        fill: #edc1bc;
      }

      .cls-2 {
        isolation: isolate;
      }

      .cls-3 {
        fill: #303d54;
      }

      .cls-4 {
        fill: #3c79dd;
      }

      .cls-5 {
        clip-path: url(#clip-path);
      }

      .cls-6 {
        fill: #f9a0a0;
        opacity: 0.5;
        mix-blend-mode: multiply;
      }

      .cls-7 {
        fill: #e0a9a4;
      }

      .cls-8 {
        fill: #dd928e;
      }

      .cls-9 {
        fill: #ed6358;
      }
    </style>
    <clipPath id="clip-path" transform="translate(-1040.55 -1385.63)">
      <path id="_剪裁路徑_" data-name="&lt;剪裁路徑&gt;" class="cls-1" d="M1161.64,1513.46s-.74-11.25-6.3-15.63c-8.36-6.59-18.53-9.42-25.5-8.18-9.7,1.73-16.4,12.09-15.76,21.91s7.42,18.54,16,23.45c6.75,3.89,15,5.59,22.54,3.94,0,0,16.88,59.22,66.76,70.26s92.48-17,89.94-86.74c-2.33-64-25.47-84-52-88.58s-50.94-.35-68.24,24.08-6.32,57.43-13.06,61.75C1168.7,1524.34,1161.64,1513.46,1161.64,1513.46Z"/>
    </clipPath>
  </defs>
  <title>face</title>
  <g class="cls-2">
    <g id="圖層_11" data-name="圖層 11">
      <path class="cls-3" d="M1346.1,1572.83c-9.12-6.68-14-17.4-15.8-28.75a55.44,55.44,0,0,0,3.06,9.17c2.62,5.94,6.33,12.32,11.5,16.39.48.38,1.27-.13.88-.72-1.74-2.66-3.68-5.17-5.26-8a57,57,0,0,1-3.83-8.24c-.12-.32-.21-.64-.33-1a55.45,55.45,0,0,0,14,14,39,39,0,0,0,17.85,6.82.62.62,0,0,0,.3-1.2c-9.9-3.84-19.41-9.52-26.33-17.68a49,49,0,0,1-9.72-18.56c0-.19-.06-.38-.08-.57a100.19,100.19,0,0,1,3.48-37.61c4.09-14.75,10.51-29.24,9.84-44.85a39.89,39.89,0,0,0-5.75-19.74,38.39,38.39,0,0,0-13.44-12.61,43.13,43.13,0,0,0-21.67-5.51,47.44,47.44,0,0,0-12.27,1.6,37.82,37.82,0,0,0-5.61,2.08,27.14,27.14,0,0,0,.65-3.58,37,37,0,0,0,.24-4.47,19.48,19.48,0,0,0-.69-4.42c0-.22-.39-.15-.39.07,0,1.46-.18,2.92-.22,4.38a33.88,33.88,0,0,1-.39,4.5c-.15,1-.36,2-.57,3-.13-.3-.27-.6-.41-.9a22.06,22.06,0,0,0-1.69-6.4,32.38,32.38,0,0,0-4.74-7.72,41.58,41.58,0,0,0-15.29-11.23c-12.28-5.39-26.78-6.55-40-4.68-12.81,1.81-25.13,6.81-34.76,15.61a59.2,59.2,0,0,0-4.29,4.39,80.43,80.43,0,0,0-21.71,22.22c-6.23,9.63-10.43,20.43-16.15,30.37-.39.69-.8,1.37-1.21,2a81.71,81.71,0,0,1-23.52,16.29c-10,4.71-21.15,6.74-30.74,12.29a47.58,47.58,0,0,0-19.23,20.59,38.12,38.12,0,0,0,.26,33.88.77.77,0,0,0,1.38-.62,42.36,42.36,0,0,1,1.14-31.19,44.63,44.63,0,0,1,19-20.37c4.85-2.71,10.15-4.43,15.39-6.21a129.59,129.59,0,0,0,14.91-6,91.14,91.14,0,0,0,13.85-8.27,41.91,41.91,0,0,1-15.27,11.26c-6.41,2.61-13.49,3.2-20,5.57a38.39,38.39,0,0,0-14.55,62.65,35.89,35.89,0,0,0-26.2,6.13c-.34.12-.68.21-1,.36a27.81,27.81,0,0,0-6.85,4.14,32.61,32.61,0,0,0-9.55,13.09c-4.47,11.06-2.33,23.49,4.06,33.35l.18.27s-11.27-14.19-7-1.28c4.48,13.49,10.06,14.93,21.89,22.8s26.31,10.8,40.5,11.67c21.81,1.34,44.35-2,63.44-12.63s35.18,9.69,50.57-5.82c3.56-3.59,15-4.66,19.93-3.46,43.66,10.71,61.66-12.54,105.82-4.13,22.22,4.24,34.4-7.18,33.71-18C1376.68,1586.12,1355.29,1579.58,1346.1,1572.83Zm-293.51,34.88a39.63,39.63,0,0,1-6.44-14.25,31.57,31.57,0,0,1,4.9-24.59c-6.5,12.07-5.17,28,3.4,38.71C1053.83,1607.61,1053.21,1607.65,1052.59,1607.71Zm205.5-213.6c-18.33-5.7-38.41-4.24-56.2,2.9a61.6,61.6,0,0,1,14.9-5.81,77.42,77.42,0,0,1,38.46.36,44.92,44.92,0,0,1,18.88,10.09,39.25,39.25,0,0,1,5.63,6.57A46.49,46.49,0,0,0,1258.09,1394.11Zm28.59,26.27v0l.17,0Zm8.4-1.84a52.67,52.67,0,0,1,8.13-.9,41.33,41.33,0,0,1,19.47,4.12,35.33,35.33,0,0,1,13.65,11.72,36.18,36.18,0,0,1,5.69,19.25,67.82,67.82,0,0,1-2.35,18.57c.69-12.23-1.08-24.57-7.85-34.57C1323.61,1424.6,1309.22,1417.22,1295.08,1418.54Z" transform="translate(-1040.55 -1385.63)"/>
      <g>
        <path class="cls-4" d="M1090.3,1587.32a1.1,1.1,0,0,0-.64-2.1c-8.25,2.51-14.78,6.79-19.42,12.74-5.68,7.29-8.41,15.75-7.49,23.22a.94.94,0,0,0,.89.8h0a.82.82,0,0,0,.78-.69c1.22-6.92,3.17-14.88,8.29-21.4A37.11,37.11,0,0,1,1090.3,1587.32Z" transform="translate(-1040.55 -1385.63)"/>
        <path class="cls-4" d="M1110.9,1557.2c.76.64,1.53,1.27,2.26,1.94,2.36,2.17,5.8,6.46,2.3,10.81a24.63,24.63,0,0,1-5.43,4.63,17,17,0,0,1-7.4,3.22.8.8,0,0,0-.71.89.75.75,0,0,0,.78.69h0c4.37-.29,8.27-2.75,11.52-5.12,3.93-2.87,5.75-6,5.4-9.45-.4-3.9-3.19-7.06-6.16-9.89l-.47-.45c-2.74-2.6-5.85-5.55-5-9.47a9.9,9.9,0,0,1,4-5.71,23.85,23.85,0,0,1,2.62-1.61,16.3,16.3,0,0,0,3.76-2.55,1.7,1.7,0,0,0,.3-1.93,1.62,1.62,0,0,0-1.6-1c-4.27.36-8.6,3.8-10.82,6.84a11.05,11.05,0,0,0-1.33,11.48C1106.26,1553.34,1108.61,1555.3,1110.9,1557.2Z" transform="translate(-1040.55 -1385.63)"/>
        <path class="cls-4" d="M1119.26,1617.06c-.51-.21-1-.42-1.49-.66a35.33,35.33,0,0,1-4.44-2.6,28.35,28.35,0,0,1-7.08-7.27,24,24,0,0,1-4.21-10.43c-.42-3.49.51-7.87,4.36-9.71a.91.91,0,0,0-.74-1.66,11.4,11.4,0,0,0-6.81,8.9c-.63,4,.42,8.55,3.11,13.4a30.48,30.48,0,0,0,8.1,9.29,27.85,27.85,0,0,0,5.22,3.27l.21.1c1.52.7,3.55,1.65,5.37,1.61a4.9,4.9,0,0,0,.54,0,1.73,1.73,0,0,0,1.36-1.18,1.33,1.33,0,0,0-.46-1.4A11.37,11.37,0,0,0,1119.26,1617.06Z" transform="translate(-1040.55 -1385.63)"/>
        <path class="cls-4" d="M1300.39,1533.77c-2.17-1.63-4.48-3.11-6.72-4.53-1.81-1.15-3.68-2.34-5.45-3.61a25.91,25.91,0,0,1-9.77-12.26,25,25,0,0,1-.67-15.13,1.1,1.1,0,0,0-.77-1.4,1.18,1.18,0,0,0-1.51.78,26.83,26.83,0,0,0,3.14,23.13c3.46,5.19,8.65,8.56,13.67,11.82,2.32,1.5,4.73,3.06,6.91,4.77,5.75,4.52,12.74,11.93,13.34,21.6a16.57,16.57,0,0,1-3.7,12,20.31,20.31,0,0,1-10.29,6.32c-4,1.11-9.82,1.82-14.27-1.14a10.44,10.44,0,0,1-4.1-12.23.78.78,0,0,0-.39-1,.72.72,0,0,0-1,.33,10.75,10.75,0,0,0,.83,10.81c2.08,3.29,5.47,5.4,10.36,6.42a18,18,0,0,0,4.16.38c7.31-.17,14.92-4.42,18.58-10.79,4.32-7.53,3.39-17.81-2.35-26.19A44.18,44.18,0,0,0,1300.39,1533.77Z" transform="translate(-1040.55 -1385.63)"/>
        <path class="cls-4" d="M1309.33,1594l-1.42,0c-4.36.1-8.46.21-12.69-.69a32,32,0,0,1-12.94-5.84,27.5,27.5,0,0,1-7.94-10,24.82,24.82,0,0,1-2.5-12.8.84.84,0,0,0-.75-.92.88.88,0,0,0-1,.69,23.53,23.53,0,0,0-.54,7.1,25.46,25.46,0,0,0,1.8,7A29.25,29.25,0,0,0,1280,1590a33.6,33.6,0,0,0,14,6.44,39.66,39.66,0,0,0,9.15.93,26.58,26.58,0,0,0,6.62-.94,1.23,1.23,0,0,0,.89-1.4A1.25,1.25,0,0,0,1309.33,1594Z" transform="translate(-1040.55 -1385.63)"/>
        <path class="cls-4" d="M1323.39,1578.44a26.82,26.82,0,0,0,3.61-5.13,30.35,30.35,0,0,0,3.48-10.74,26.94,26.94,0,0,0-6.93-21.19,26.32,26.32,0,0,0-10.41-6.91,1,1,0,0,0-1.24.56,1,1,0,0,0,.44,1.35,28,28,0,0,1,14.63,20,25.72,25.72,0,0,1-1.28,12.64,22.12,22.12,0,0,1-7.86,10.6l-.53.28.1.12a1.72,1.72,0,0,0-.08,1.81,1.39,1.39,0,0,0,1.85.67l.18-.07.05.06.15-.14c4.62-1.73,10,.47,12.67,5.24,3.53,6.3.33,14.33-1.89,18.55a1.17,1.17,0,0,0,.42,1.61,1.39,1.39,0,0,0,.71.19,1.28,1.28,0,0,0,1-.56c3.91-5.55,6.86-14.66,2.28-22.05A14.93,14.93,0,0,0,1323.39,1578.44Zm-10.82-42.51Z" transform="translate(-1040.55 -1385.63)"/>
        <path class="cls-4" d="M1346.36,1594.33c-1.16-7.94-6.3-14.3-10.07-18.39a.91.91,0,0,0-1.33-.06,1,1,0,0,0-.1,1.45c5.1,5.78,8.16,11.52,9.1,17.06a18.48,18.48,0,0,1-4.65,16.1.84.84,0,0,0,0,1.2.91.91,0,0,0,1.27.08C1345.21,1607.84,1347.37,1601.32,1346.36,1594.33Z" transform="translate(-1040.55 -1385.63)"/>
      </g>
      <g>
        <g>
          <path id="_剪裁路徑_2" data-name="&lt;剪裁路徑&gt;" class="cls-1" d="M1161.64,1513.46s-.74-11.25-6.3-15.63c-8.36-6.59-18.53-9.42-25.5-8.18-9.7,1.73-16.4,12.09-15.76,21.91s7.42,18.54,16,23.45c6.75,3.89,15,5.59,22.54,3.94,0,0,16.88,59.22,66.76,70.26s92.48-17,89.94-86.74c-2.33-64-25.47-84-52-88.58s-50.94-.35-68.24,24.08-6.32,57.43-13.06,61.75C1168.7,1524.34,1161.64,1513.46,1161.64,1513.46Z" transform="translate(-1040.55 -1385.63)"/>
          <g class="cls-5">
            <path class="cls-6" d="M1316.29,1550.39a29.38,29.38,0,0,0-6.14-3.54,1.83,1.83,0,0,0-.51-2,9,9,0,0,0-3.26-2.16,33.33,33.33,0,0,0-4.91-1.25,58,58,0,0,0-9.11-.93c-5.57-.17-11.2.36-16.08,3.28s-8.11,8.3-7.59,14c.47,5.19,4,9.79,8.15,12.71a36.6,36.6,0,0,0,31,4.9c5.14-1.49,10.76-4.7,12.91-9.88C1323.09,1559.87,1321,1554,1316.29,1550.39Z" transform="translate(-1040.55 -1385.63)"/>
            <path class="cls-6" d="M1215.45,1544.09a12.24,12.24,0,0,0-3-2.81.58.58,0,0,0,0-.43,17.07,17.07,0,0,0-5.24-6.11c-2.51-1.89-5.75-2.53-8.78-3a39.14,39.14,0,0,0-17.68,1.13c-6.25,2-11.82,6.08-14.15,12.44a16.46,16.46,0,0,0,4.08,17c4.57,4.65,10.83,6.67,17.25,7,6.27.28,13.1-.27,19-2.53a16.81,16.81,0,0,0,11-13.57A12.65,12.65,0,0,0,1215.45,1544.09Z" transform="translate(-1040.55 -1385.63)"/>
          </g>
        </g>
        <g>
          <path class="cls-7" d="M1140.3,1521.57c-.1-.28-.19-.57-.28-.85a5.83,5.83,0,0,0-.57-1c-.36-.61-.77-1.19-1.14-1.8a18.85,18.85,0,0,1-1.73-3.66,33.23,33.23,0,0,1-1.07-4c-.19-1-.38-2-.54-2.93a11.76,11.76,0,0,1,2.72-.91,12.42,12.42,0,0,1,5-.3.36.36,0,0,0,.3-.65,9.6,9.6,0,0,0-5.59-1.89,10.52,10.52,0,0,0-5.73,1.9,11.87,11.87,0,0,0-4.07,5,9.09,9.09,0,0,0-.75,3.12c0,.81.05,2.4.7,3a.81.81,0,0,0,1.13,0,2.26,2.26,0,0,0,.52-1.13c.11-.41.29-.8.42-1.21a21.41,21.41,0,0,1,.83-2.24,9.76,9.76,0,0,1,3-3.81l.08,0a11.43,11.43,0,0,0-.19,2.34,16.19,16.19,0,0,0,.85,4.58,22.17,22.17,0,0,0,1.9,4.18,10,10,0,0,0,1.39,1.9,5.19,5.19,0,0,0,.86.83,8.59,8.59,0,0,0,1.06.51A.71.71,0,0,0,1140.3,1521.57Z" transform="translate(-1040.55 -1385.63)"/>
          <path class="cls-3" d="M1220.34,1492.86a11.72,11.72,0,0,0-2.54-2.38,15.52,15.52,0,0,0-3.21-1.6,18.76,18.76,0,0,0-7-1.12,20.47,20.47,0,0,0-6.8,1.26,17.08,17.08,0,0,0-3.26,1.62,8.19,8.19,0,0,0-1.59,1.4,3.24,3.24,0,0,0-1,1.74,1.76,1.76,0,0,0,1.7,2.16,6.82,6.82,0,0,0,3.18-1.13,22.2,22.2,0,0,1,2.42-1.12,16.7,16.7,0,0,1,5.43-1.14,17.43,17.43,0,0,1,5.54.59,28.45,28.45,0,0,1,5.45,1.92,1.4,1.4,0,0,0,1.67-2.2Z" transform="translate(-1040.55 -1385.63)"/>
          <path class="cls-8" d="M1245.53,1489.35a73.15,73.15,0,0,0-1.53,24.23,86,86,0,0,0,2.1,11.71c1,4,2.12,8,4.67,11.29a1,1,0,0,0,1.8-.68c-.26-3.83-1.54-7.46-2.45-11.16a110.81,110.81,0,0,1-2.16-11.58,136,136,0,0,1-1.16-23.61.64.64,0,0,0-1.27-.2Z" transform="translate(-1040.55 -1385.63)"/>
          <path class="cls-3" d="M1213.09,1514.08c-.19,2.17-1.59,3.81-3.14,3.67s-2.63-2-2.44-4.16,1.6-3.81,3.14-3.67S1213.29,1511.92,1213.09,1514.08Z" transform="translate(-1040.55 -1385.63)"/>
          <path class="cls-3" d="M1272.9,1514c-.19,2.16-1.6,3.8-3.14,3.66s-2.64-2-2.44-4.16,1.59-3.8,3.13-3.66S1273.09,1511.86,1272.9,1514Z" transform="translate(-1040.55 -1385.63)"/>
          <path class="cls-3" d="M1262.35,1493.71c1.55.52,3.56-.14,5.13-.39a26,26,0,0,1,5.21-.32,23.64,23.64,0,0,1,5,.71c1.51.4,3.88,1.51,5.37.64a1.22,1.22,0,0,0,.64-1.29c-.37-1.92-3-2.75-4.68-3.17a28.67,28.67,0,0,0-6-.87,25.57,25.57,0,0,0-5.92.5c-1.7.35-4.32,1-5.25,2.62a1.06,1.06,0,0,0,.52,1.57Z" transform="translate(-1040.55 -1385.63)"/>
          <path class="cls-9" d="M1256,1549.5a7.5,7.5,0,0,1-15,0c0-4.14,3.36-.5,7.5-.5S1256,1545.36,1256,1549.5Z" transform="translate(-1040.55 -1385.63)"/>
        </g>
      </g>
      <ellipse class="cls-4" cx="1202.96" cy="1435.66" rx="5" ry="16" transform="translate(-1611.37 -551.59) rotate(-31.3)"/>
      <ellipse class="cls-4" cx="1192.51" cy="1445.45" rx="5" ry="16" transform="translate(-1617.98 -555.59) rotate(-31.3)"/>
    </g>
  </g>
</svg>
